<svg xmlns="http://www.w3.org/2000/svg" xmlns:xlink="http://www.w3.org/1999/xlink" viewBox="0 0 1626.4 828.9"><defs><radialGradient id="radial-gradient" cx="356.74" cy="278.38" r="904.41" gradientUnits="userSpaceOnUse"><stop offset="0.25" stop-color="#fff"/><stop offset="0.42" stop-color="#fafcfe"/><stop offset="0.64" stop-color="#eaf3fb"/><stop offset="0.87" stop-color="#d0e4f5"/><stop offset="1" stop-color="#bfdaf2"/></radialGradient><clipPath id="clip-path" transform="translate(454.6 138)"><rect y="0.8" width="708" height="555.24" style="fill:none"/></clipPath><clipPath id="clip-path-2" transform="translate(454.6 138)"><rect x="-420.6" y="0.8" width="1554.7" height="555.24" style="fill:url(#radial-gradient)"/></clipPath><radialGradient id="radial-gradient-3" cx="330.61" cy="287.61" r="893.7" gradientUnits="userSpaceOnUse"><stop offset="0.05" stop-color="#306bc4"/><stop offset="0.08" stop-color="#2e67bc"/><stop offset="0.14" stop-color="#295ba7"/><stop offset="0.21" stop-color="#204884"/><stop offset="0.26" stop-color="#193765"/><stop offset="0.31" stop-color="#193765"/><stop offset="0.37" stop-color="#142c52"/><stop offset="0.47" stop-color="#0d1c34"/><stop offset="0.58" stop-color="#07101d"/><stop offset="0.7" stop-color="#03070d"/><stop offset="0.83" stop-color="#010203"/><stop offset="0.99"/></radialGradient><radialGradient id="radial-gradient-4" cx="330.61" cy="287.6" r="564.85" gradientUnits="userSpaceOnUse"><stop offset="0.05" stop-color="#316fcb"/><stop offset="0.07" stop-color="#2f6bc3"/><stop offset="0.09" stop-color="#2a5fae"/><stop offset="0.13" stop-color="#224c8b"/><stop offset="0.16" stop-color="#16325a"/><stop offset="0.18" stop-color="#112645"/><stop offset="0.27" stop-color="#0d1d34"/><stop offset="0.42" stop-color="#07101d"/><stop offset="0.58" stop-color="#03070d"/><stop offset="0.76" stop-color="#010203"/><stop offset="1"/></radialGradient><radialGradient id="radial-gradient-5" cx="-16.99" cy="3340.74" r="1130.53" gradientTransform="translate(361.1 -718.3) scale(1.8 0.3)" xlink:href="#radial-gradient-3"/><radialGradient id="radial-gradient-6" cx="-16.99" cy="3340.74" r="714.55" gradientTransform="translate(361.1 -718.3) scale(1.8 0.3)" xlink:href="#radial-gradient-4"/><radialGradient id="radial-gradient-7" cx="-16.99" cy="19722.95" r="1130.49" gradientTransform="translate(361.1 -962.8) scale(1.8 0.06)" xlink:href="#radial-gradient-3"/><radialGradient id="radial-gradient-8" cx="-16.99" cy="19723.03" r="714.55" gradientTransform="translate(361.1 -962.8) scale(1.8 0.06)" xlink:href="#radial-gradient-4"/></defs><g style="isolation:isolate"><g id="Layer_1" data-name="Layer 1"><g style="clip-path:url(#clip-path)"><rect x="454.6" y="138.8" width="708" height="555.24" style="fill:#4a6cf7"/><rect x="34" y="138.8" width="1554.7" height="555.24" style="fill:url(#radial-gradient)"/><g style="clip-path:url(#clip-path-2)"><g style="opacity:0.7000000000000001"><path d="M940.6,420.3l8.4,4.8v9.7l-8.4,4.8-8.3-4.8v-9.7l8.3-4.8m0-1.2-9.3,5.4v10.8l9.3,5.5,9.4-5.4V424.5l-9.4-5.4Z" transform="translate(454.6 138)" style="fill:#365673;mix-blend-mode:hard-light"/><polygon points="1431.1 571.8 1431.1 577.5 1404.2 593 1404.1 640.2 1431 655.8 1431 661.5 1399.2 643.1 1399.2 590.2 1431.1 571.8" style="fill:#365673;mix-blend-mode:hard-light"/><path d="M715.2,422.4,718,424v3.1l-2.8,1.6-2.7-1.6V424l2.7-1.6m0-.4-3,1.8v3.5l3,1.8,3.1-1.8v-3.5l-3.1-1.8Z" transform="translate(454.6 138)" style="fill:#365673;mix-blend-mode:hard-light"/><polygon points="1093.5 546.9 1089.5 544.6 1085.6 546.9 1085.6 551.5 1089.5 553.8 1093.5 551.5 1093.5 546.9" style="fill:#365673;mix-blend-mode:hard-light"/><polygon points="1325.8 626.8 1300.9 612.4 1276 626.7 1276 655.5 1300.8 669.8 1325.7 655.5 1325.8 626.8" style="fill:#365673;mix-blend-mode:hard-light"/><polygon points="1192.1 639.1 1190 637.8 1187.9 639 1187.9 641.5 1190 642.7 1192.1 641.5 1192.1 639.1" style="fill:#365673;mix-blend-mode:hard-light"/><path d="M504.6,429.1l9.9,5.8v11.4l-9.9,5.7-9.9-5.7V434.8l9.9-5.7m0-1.4-11.1,6.4V447l11.1,6.4,11.1-6.4V434.2l-11.1-6.5Z" transform="translate(454.6 138)" style="fill:#365673;mix-blend-mode:hard-light"/><path d="M547.5,417.4l5.3,3.1v6.1l-5.3,3.1-5.4-3.1v-6.1l5.4-3.1m0-.7-6,3.4V427l5.9,3.4,6-3.4v-6.9l-5.9-3.4Z" transform="translate(454.6 138)" style="fill:#365673;mix-blend-mode:hard-light"/><path d="M702.4,450l23,13.3V490l-23.1,13.2-23-13.3V463.3L702.4,450m0-3.2-25.9,14.9v29.8l25.8,15,25.9-14.9V461.7l-25.8-14.9Z" transform="translate(454.6 138)" style="fill:#365673;mix-blend-mode:hard-light"/><path d="M878.6,419.7l1.9,1.1V423l-1.9,1.1-1.9-1.1v-2.2l1.9-1.1m0-.3-2.1,1.3v2.4l2.1,1.2,2.1-1.2v-2.4l-2.1-1.3Z" transform="translate(454.6 138)" style="fill:#365673;mix-blend-mode:hard-light"/><path d="M656.9,418.3l34.9,20.2v40.4l-35,20.2-35-20.3V438.5l35-20.2m0-4.9L617.6,436v45.3L656.8,504,696,481.4V436.1l-39.2-22.7Z" transform="translate(454.6 138)" style="fill:#365673;mix-blend-mode:hard-light"/><path d="M589.6,440.2l4.8,2.7v5.5l-4.8,2.8-4.7-2.8v-5.5l4.7-2.7m0-.2-4.9,2.9v5.6l4.9,2.8,4.9-2.8v-5.6l-4.9-2.9Z" transform="translate(454.6 138)" style="fill:#365673;mix-blend-mode:hard-light"/><path d="M788.4,490l4.9,2.8v5.8l-5,2.8-4.9-2.8v-5.8l5-2.8m0-.2-5.2,2.9v5.9l5.1,3,5.2-3v-5.8l-5.1-3Z" transform="translate(454.6 138)" style="fill:#365673;mix-blend-mode:hard-light"/><path d="M586,502.6l3.4,2v3.8l-3.4,1.9-3.3-1.9v-3.8l3.3-2m0-.1-3.4,2v4l3.4,1.9,3.5-1.9v-4l-3.5-2Z" transform="translate(454.6 138)" style="fill:#365673;mix-blend-mode:hard-light"/><path d="M773.7,408.5l27.2,15.8v31.4l-27.3,15.7-27.2-15.7V424.2l27.2-15.7m0-.9-28,16.2v32.3l27.9,16.2,28.1-16.1V423.8l-28-16.2Z" transform="translate(454.6 138)" style="fill:#365673;mix-blend-mode:hard-light"/><path d="M870,413.5l39.2,22.7v45.3l-39.2,22.6-39.2-22.7V436.1L870,413.5m0-1.3-40.4,23.2V482l40.3,23.3,40.3-23.2V435.5L870,412.2Z" transform="translate(454.6 138)" style="fill:#365673;mix-blend-mode:hard-light"/><path d="M490.1,494.8l2.4,1.3v2.8l-2.4,1.4-2.3-1.4v-2.8l2.3-1.3m0-.1-2.4,1.4v2.8l2.4,1.4,2.5-1.4v-2.8l-2.5-1.4Z" transform="translate(454.6 138)" style="fill:#365673;mix-blend-mode:hard-light"/><path d="M534.5,460.6l30,17.4v34.7L534.4,530l-30-17.4V477.9l30.1-17.3m0-1-30.9,17.8v35.7L534.4,531l30.9-17.8V477.5l-30.9-17.9Z" transform="translate(454.6 138)" style="fill:#365673;mix-blend-mode:hard-light"/><path d="M640,470.6l26.1,15.1v30.2l-26.1,15-26.1-15.1V485.7L640,470.6m0-.8-26.8,15.5v30.9L640,531.7l26.8-15.4v-31L640,469.8Z" transform="translate(454.6 138)" style="fill:#365673;mix-blend-mode:hard-light"/><path d="M822.3,410.3,842.5,422v23.3l-20.1,11.6-20.2-11.6V422l20.2-11.7m0-.6-20.7,11.9v24l20.8,12,20.7-12V421.7l-20.7-12Z" transform="translate(454.6 138)" style="fill:#365673;mix-blend-mode:hard-light"/><polygon points="1190.1 715.7 1135 683.8 1079.8 715.6 1079.7 779.3 1134.9 811.2 1190.1 779.4 1190.1 715.7" style="fill:#365673;mix-blend-mode:hard-light;opacity:0.6000000000000001"/><polygon points="1340.6 732.9 1305 712.3 1269.4 732.8 1269.3 773.9 1304.9 794.5 1340.5 774 1340.6 732.9" style="fill:#365673;mix-blend-mode:hard-light;opacity:0.6000000000000001"/><path d="M701.8,500.4l12.5,7.3v14.4l-12.5,7.2-12.4-7.2V507.6l12.5-7.2m0-1.7-14,8.1v16.1l14,8.1,14.1-8V506.8l-14-8.1Z" transform="translate(454.6 138)" style="fill:#365673;mix-blend-mode:hard-light"/><path d="M776.2,517.2l61.1,35.3V623l-61.1,35.2L715,622.9V552.3l61.1-35.1m0-8.6-68.5,39.5v79l68.5,39.6,68.5-39.4V548.2l-68.5-39.6Z" transform="translate(454.6 138)" style="fill:#365673;mix-blend-mode:hard-light"/><path d="M364.9,503.6l4.1,2.3v4.7l-4.1,2.4-4.1-2.4v-4.7l4.1-2.3m0-.6-4.6,2.6v5.3l4.6,2.6,4.5-2.6v-5.2l-4.5-2.7Z" transform="translate(454.6 138)" style="fill:#365673;mix-blend-mode:hard-light"/><polygon points="752.1 655.7 746.2 652.3 740.3 655.7 740.3 662.5 746.2 665.9 752.1 662.5 752.1 655.7" style="fill:#365673;mix-blend-mode:hard-light"/><polygon points="1431.1 636.5 1431 721.3 1396.8 701.5 1396.9 656.2 1431.1 636.5" style="fill:#365673;mix-blend-mode:hard-light"/><polygon points="1416.9 632.6 1407.1 627 1397.3 632.6 1397.3 643.9 1407.1 649.6 1416.9 643.9 1416.9 632.6" style="fill:#365673;mix-blend-mode:hard-light"/><polygon points="1052.5 740.8 1015.4 719.3 978.2 740.7 978.1 783.6 1015.3 805.1 1052.5 783.7 1052.5 740.8" style="fill:#365673;mix-blend-mode:hard-light"/><polygon points="852.7 759.1 849.6 757.3 846.4 759.1 846.4 762.7 849.5 764.6 852.7 762.8 852.7 759.1" style="fill:#365673;mix-blend-mode:hard-light"/><polygon points="1425.8 731.4 1389.5 710.4 1353.1 731.3 1353 773.4 1389.4 794.4 1425.8 773.4 1425.8 731.4" style="fill:#365673;mix-blend-mode:hard-light"/><path d="M345.6,544.8l34.5,20v39.7l-34.5,19.9-34.4-19.9V564.7l34.4-19.9m0-4.8L307,562.3v44.6l38.6,22.3L384.2,607V562.4L345.6,540Z" transform="translate(454.6 138)" style="fill:#365673;mix-blend-mode:hard-light"/><path d="M797.7,496.8l7.9,4.5v9.1l-7.9,4.5-7.8-4.5v-9.1l7.8-4.5m0-1.1-8.8,5.1v10.1l8.8,5.1,8.8-5V500.8l-8.8-5.1Z" transform="translate(454.6 138)" style="fill:#365673;mix-blend-mode:hard-light"/><path d="M609,499.6l2.8,1.6v3.2l-2.8,1.7-2.8-1.7v-3.2l2.8-1.6m0-.4-3.1,1.8v3.6l3.1,1.9,3.2-1.9V501l-3.2-1.8Z" transform="translate(454.6 138)" style="fill:#365673;mix-blend-mode:hard-light"/><polygon points="1431 708.7 1430.9 761.2 1429 760.1 1429.1 709.8 1431 708.7" style="fill:#365673;mix-blend-mode:hard-light;opacity:0.30000000000000004"/><path d="M474.2,604.6l7.4,4.2v8.6l-7.4,4.3-7.5-4.3v-8.6l7.5-4.2m0-.3-7.7,4.4v8.8l7.7,4.4,7.6-4.4v-8.8l-7.6-4.4Z" transform="translate(454.6 138)" style="fill:#365673;mix-blend-mode:hard-light"/><path d="M452.3,482.8,493,506.4v47l-40.7,23.5-40.7-23.6v-47l40.8-23.5m0-1.3-41.9,24.1V554l41.8,24.2,41.9-24.1V505.7l-41.8-24.2Z" transform="translate(454.6 138)" style="fill:#365673;mix-blend-mode:hard-light"/><path d="M596.2,490.2l58.6,33.9v67.7L596,625.6l-58.6-33.9V524l58.7-33.8m0-1.9-60.3,34.8v69.6L596,627.5l60.3-34.7V523.2l-60.2-34.9Z" transform="translate(454.6 138)" style="fill:#365673;mix-blend-mode:hard-light"/><path d="M252.5,575.7l38.9,22.5v45.1l-39,22.4-39-22.5V598.1l39.1-22.4m0-1.3-40.2,23.1v46.3L252.4,667l40.1-23.1V597.6l-40-23.2Z" transform="translate(454.6 138)" style="fill:#365673;mix-blend-mode:hard-light"/><path d="M524.9,485.6,555,503v34.8l-30.2,17.4-30.1-17.4V502.9l30.2-17.3m0-1-31,17.9v35.7l30.9,18,31-17.9V502.5l-31-17.9Z" transform="translate(454.6 138)" style="fill:#365673;mix-blend-mode:hard-light"/><path d="M879.9,520.1l3.7,2.1v4.3l-3.7,2.1-3.7-2.1v-4.3l3.7-2.1m0-.1-3.8,2.2v4.3l3.8,2.2,3.8-2.1v-4.4l-3.8-2.2Z" transform="translate(454.6 138)" style="fill:#365673;mix-blend-mode:hard-light"/><path d="M789.3,662.8l-39.6-22.9V594.1l39.7-22.8L829,594.2V640l-39.6,22.8m0,1.8,41.2-23.7V593.3l-41.1-23.8-41.2,23.7v47.6l41.2,23.8Z" transform="translate(454.6 138)" style="fill:#365673;mix-blend-mode:hard-light"/><path d="M810.7,524.2l12.5,7.2v14.4L810.7,553l-12.5-7.2V531.4l12.5-7.2m0-1.8-14,8.1v16.2l14,8.1,14-8.1V530.5l-14-8.1Z" transform="translate(454.6 138)" style="fill:#365673;mix-blend-mode:hard-light"/><path d="M885.2,540.9l61,35.3v70.5L885,681.9l-61-35.3V576.1l61.1-35.2m0-8.6-68.5,39.5v79.1L885,690.5,953.6,651V571.9l-68.5-39.6Z" transform="translate(454.6 138)" style="fill:#365673;mix-blend-mode:hard-light"/><path d="M473.9,527.3l4,2.4v4.7l-4,2.3-4.1-2.3v-4.7l4.1-2.4m0-.6-4.6,2.7v5.2l4.6,2.7,4.5-2.7v-5.2l-4.5-2.7Z" transform="translate(454.6 138)" style="fill:#365673;mix-blend-mode:hard-light"/><polygon points="845.2 673.2 839.3 669.8 833.4 673.2 833.4 680 839.3 683.4 845.2 680 845.2 673.2" style="fill:#365673;mix-blend-mode:hard-light"/><polygon points="1161.5 764.5 1124.4 743 1087.1 764.4 1087.1 807.4 1124.3 828.9 1161.5 807.4 1161.5 764.5" style="fill:#365673;mix-blend-mode:hard-light;opacity:0.5"/><polygon points="961.7 782.9 958.5 781 955.4 782.9 955.4 786.5 958.5 788.3 961.7 786.5 961.7 782.9" style="fill:#365673;mix-blend-mode:hard-light"/><path d="M223.1,519.9l7.9,4.6v9.1l-7.9,4.6-7.9-4.6v-9.1l7.9-4.6m0-1.1-8.9,5.1v10.3l8.9,5.1,8.9-5.1V523.9l-8.9-5.1Z" transform="translate(454.6 138)" style="fill:#365673;mix-blend-mode:hard-light"/><path d="M454.6,568.6,489,588.5v39.8l-34.5,19.8-34.4-19.9V588.4l34.5-19.8m0-4.9L416,586v44.6L454.5,653l38.7-22.3V586.1l-38.6-22.4Z" transform="translate(454.6 138)" style="fill:#365673;mix-blend-mode:hard-light"/><path d="M906.7,520.5l7.8,4.6v9l-7.8,4.6-7.9-4.6V525l7.9-4.5m0-1.1-8.8,5.1v10.2l8.8,5.1,8.8-5.1V524.5l-8.8-5.1Z" transform="translate(454.6 138)" style="fill:#365673;mix-blend-mode:hard-light"/><path d="M718,523.3l2.8,1.6v3.3l-2.8,1.6-2.8-1.6v-3.3l2.8-1.6m0-.4-3.2,1.8v3.7l3.2,1.8,3.1-1.8v-3.7l-3.1-1.8Z" transform="translate(454.6 138)" style="fill:#365673;mix-blend-mode:hard-light"/><path d="M286.1,553.9l7.2,4.1v8.2l-7.2,4.1-7.1-4.1V558l7.1-4.1m0-.2-7.3,4.2v8.4l7.3,4.2,7.4-4.2v-8.4l-7.4-4.2Z" transform="translate(454.6 138)" style="fill:#365673;mix-blend-mode:hard-light"/><path d="M583.1,628.3l7.5,4.3v8.5l-7.4,4.3-7.4-4.3v-8.5l7.4-4.3m0-.3-7.6,4.4v8.8l7.6,4.5,7.7-4.4v-8.8l-7.7-4.5Z" transform="translate(454.6 138)" style="fill:#365673;mix-blend-mode:hard-light"/><path d="M280.8,647.2l4.9,2.9v5.8l-5,2.8-4.9-2.9v-5.7l5-2.9m0-.1-5.1,2.9v5.9l5.1,3,5.2-3V650l-5.1-2.9Z" transform="translate(454.6 138)" style="fill:#365673;mix-blend-mode:hard-light"/><path d="M561.3,506.6,602,530.1v47l-40.7,23.5L520.5,577V530l40.8-23.4m0-1.4-41.9,24.2v48.3l41.9,24.2L603,577.8V529.5l-41.8-24.3Z" transform="translate(454.6 138)" style="fill:#365673;mix-blend-mode:hard-light"/><path d="M705.1,514l58.6,33.9v67.7L705,649.4l-58.6-34V547.7L705.1,514m0-1.9-60.3,34.7v69.6L705,651.2l60.3-34.7V546.9l-60.3-34.8Z" transform="translate(454.6 138)" style="fill:#365673;mix-blend-mode:hard-light"/><path d="M361.4,599.4l39,22.6v45l-39.1,22.5-38.9-22.6v-45l39-22.5m0-1.3-40.1,23.1v46.3l40,23.2,40.1-23.1V621.3l-40.1-23.2Z" transform="translate(454.6 138)" style="fill:#365673;mix-blend-mode:hard-light"/><path d="M633.9,509.3,664,526.7v34.8l-30.2,17.4-30.1-17.4V526.7l30.2-17.4m0-1-31,17.9V562l31,17.9,31-17.9V526.2l-30.9-17.9Z" transform="translate(454.6 138)" style="fill:#365673;mix-blend-mode:hard-light"/></g><g style="opacity:0.7000000000000001"><path d="M-227.2,132.6l-8.3-4.9v-9.6l8.4-4.8,8.3,4.8v9.7l-8.4,4.8m0,1.1,9.4-5.4V117.5l-9.3-5.4-9.4,5.4v10.8l9.3,5.4Z" transform="translate(454.6 138)" style="fill:#365673;mix-blend-mode:hard-light"/><polygon points="191.6 257.1 191.6 251.4 218.5 235.8 218.6 188.7 191.6 173.1 191.7 167.4 223.5 185.8 223.5 238.7 191.6 257.1" style="fill:#365673;mix-blend-mode:hard-light"/><path d="M-1.8,130.5l-2.7-1.6v-3.1l2.7-1.6L1,125.8v3.1l-2.8,1.6m0,.3,3.1-1.7v-3.5l-3.1-1.8-3,1.8v3.5l3,1.7Z" transform="translate(454.6 138)" style="fill:#365673;mix-blend-mode:hard-light"/><polygon points="529.2 282 533.1 284.2 537.1 282 537.1 277.4 533.2 275.1 529.2 277.4 529.2 282" style="fill:#365673;mix-blend-mode:hard-light"/><polygon points="296.9 202.1 321.8 216.5 346.7 202.2 346.7 173.4 321.8 159 297 173.4 296.9 202.1" style="fill:#365673;mix-blend-mode:hard-light"/><polygon points="430.6 189.8 432.7 191 434.8 189.8 434.8 187.4 432.7 186.2 430.6 187.4 430.6 189.8" style="fill:#365673;mix-blend-mode:hard-light"/><path d="M208.9,123.8,199,118V106.6l9.9-5.8,9.9,5.8V118l-9.9,5.8m0,1.3,11.1-6.4V105.9l-11.1-6.5-11.1,6.5v12.8l11.1,6.4Z" transform="translate(454.6 138)" style="fill:#365673;mix-blend-mode:hard-light"/><path d="M166,135.4l-5.3-3v-6.2l5.3-3,5.3,3v6.2l-5.3,3m0,.8,6-3.4v-6.9l-6-3.5-5.9,3.5v6.8l5.9,3.5Z" transform="translate(454.6 138)" style="fill:#365673;mix-blend-mode:hard-light"/><path d="M11.1,102.9l-23-13.4V62.9L11.2,49.6,34.2,63V89.6L11.1,102.9m0,3.2L37,91.2V61.4l-25.8-15L-14.7,61.3V91.1l25.8,15Z" transform="translate(454.6 138)" style="fill:#365673;mix-blend-mode:hard-light"/><path d="M-165.1,133.2l-1.9-1.1v-2.2l1.9-1.1,1.9,1.1v2.2l-1.9,1.1m0,.2,2.1-1.2v-2.4l-2.1-1.3-2.1,1.3v2.4l2.1,1.2Z" transform="translate(454.6 138)" style="fill:#365673;mix-blend-mode:hard-light"/><path d="M56.6,134.6,21.7,114.3V74l35-20.2L91.7,74v40.4l-35,20.2m0,4.9,39.3-22.6V71.6L56.7,48.9,17.5,71.5v45.3l39.2,22.7Z" transform="translate(454.6 138)" style="fill:#365673;mix-blend-mode:hard-light"/><path d="M123.8,112.7l-4.7-2.8v-5.5l4.7-2.7,4.8,2.7v5.5l-4.8,2.8m0,.1,4.9-2.8v-5.6l-4.9-2.9-4.9,2.9V110l4.9,2.8Z" transform="translate(454.6 138)" style="fill:#365673;mix-blend-mode:hard-light"/><path d="M-74.9,62.9-79.8,60V54.3l4.9-2.9,5,2.9v5.8l-5,2.8m0,.2,5.1-3V54.2l-5.1-2.9L-80,54.2v5.9l5.1,3Z" transform="translate(454.6 138)" style="fill:#365673;mix-blend-mode:hard-light"/><path d="M127.4,50.2l-3.3-1.9V44.5l3.3-1.9,3.4,1.9v3.8l-3.4,1.9m0,.1,3.5-1.9v-4l-3.5-2-3.4,2v4l3.4,1.9Z" transform="translate(454.6 138)" style="fill:#365673;mix-blend-mode:hard-light"/><path d="M-60.2,144.4l-27.3-15.8V97.1l27.2-15.7,27.3,15.8v31.5l-27.2,15.7m0,.8,28-16.1V96.8l-28-16.2-28,16.1V129l28,16.2Z" transform="translate(454.6 138)" style="fill:#365673;mix-blend-mode:hard-light"/><path d="M-156.5,139.4l-39.2-22.7V71.4l39.3-22.6,39.2,22.7v45.3l-39.3,22.6m0,1.3,40.3-23.3V70.9l-40.3-23.3-40.3,23.2v46.5l40.3,23.4Z" transform="translate(454.6 138)" style="fill:#365673;mix-blend-mode:hard-light"/><path d="M223.3,58.1,221,56.7V54l2.3-1.4,2.4,1.4v2.7l-2.4,1.4m0,.1,2.5-1.4V54l-2.5-1.5L220.9,54v2.8l2.4,1.4Z" transform="translate(454.6 138)" style="fill:#365673;mix-blend-mode:hard-light"/><path d="M179,92.3,149,74.9V40.2l30.1-17.3,30,17.4V75L179,92.3m0,1,30.9-17.8V39.8L179.1,21.9,148.2,39.7V75.4L179,93.3Z" transform="translate(454.6 138)" style="fill:#365673;mix-blend-mode:hard-light"/><path d="M73.5,82.2,47.4,67.1V37L73.5,22,99.6,37.1V67.2l-26.1,15m0,.9,26.8-15.5v-31L73.5,21.1,46.7,36.6v31L73.5,83.1Z" transform="translate(454.6 138)" style="fill:#365673;mix-blend-mode:hard-light"/><path d="M-108.8,142.5-129,130.9V107.6l20.2-11.7,20.2,11.7v23.3l-20.2,11.6m0,.7,20.7-12V107.3l-20.7-12-20.7,11.9v24l20.7,12Z" transform="translate(454.6 138)" style="fill:#365673;mix-blend-mode:hard-light"/><polygon points="432.5 113.2 487.7 145.1 542.9 113.3 542.9 49.6 487.8 17.7 432.6 49.5 432.5 113.2" style="fill:#365673;mix-blend-mode:hard-light;opacity:0.6000000000000001"/><polygon points="282.1 96 317.7 116.6 353.3 96.1 353.3 55 317.8 34.4 282.2 54.9 282.1 96" style="fill:#365673;mix-blend-mode:hard-light;opacity:0.6000000000000001"/><path d="M11.7,52.4-.8,45.2V30.8l12.5-7.2,12.5,7.2V45.2L11.7,52.4m0,1.8,14-8.1V29.9l-14-8.1-14,8.1V46.1l14,8.1Z" transform="translate(454.6 138)" style="fill:#365673;mix-blend-mode:hard-light"/><path d="M-62.7,35.7-123.8.4V-70.1l61.1-35.2L-1.6-70V.5L-62.7,35.7m-.1,8.6L5.8,4.8V-74.3l-68.5-39.6-68.5,39.5V4.7l68.4,39.6Z" transform="translate(454.6 138)" style="fill:#365673;mix-blend-mode:hard-light"/><path d="M348.6,49.3l-4.1-2.4V42.2l4.1-2.3,4.1,2.3v4.7l-4.1,2.4m0,.6,4.5-2.7V42l-4.6-2.7L344,42v5.2l4.6,2.7Z" transform="translate(454.6 138)" style="fill:#365673;mix-blend-mode:hard-light"/><polygon points="870.6 173.2 876.5 176.6 882.4 173.2 882.4 166.4 876.5 163 870.6 166.4 870.6 173.2" style="fill:#365673;mix-blend-mode:hard-light"/><polygon points="191.6 192.4 191.7 107.6 225.8 127.3 225.8 172.7 191.6 192.4" style="fill:#365673;mix-blend-mode:hard-light"/><polygon points="205.8 196.3 215.6 201.9 225.4 196.3 225.4 185 215.6 179.3 205.8 184.9 205.8 196.3" style="fill:#365673;mix-blend-mode:hard-light"/><polygon points="570.2 88.1 607.3 109.6 644.5 88.2 644.6 45.2 607.4 23.7 570.2 45.2 570.2 88.1" style="fill:#365673;mix-blend-mode:hard-light"/><polygon points="770 69.7 773.1 71.6 776.3 69.8 776.3 66.1 773.1 64.3 770 66.1 770 69.7" style="fill:#365673;mix-blend-mode:hard-light"/><polygon points="196.8 97.5 233.2 118.5 269.6 97.5 269.7 55.5 233.3 34.5 196.9 55.4 196.8 97.5" style="fill:#365673;mix-blend-mode:hard-light"/><path d="M367.8,8,333.4-11.9V-51.7l34.4-19.8,34.5,19.9v39.8L367.8,8m0,4.9L406.5-9.4V-54L367.9-76.4,329.3-54.1V-9.5l38.6,22.4Z" transform="translate(454.6 138)" style="fill:#365673;mix-blend-mode:hard-light"/><path d="M-84.2,56.1l-7.9-4.6v-9l7.9-4.6,7.8,4.6v9.1l-7.8,4.5m0,1.1,8.8-5.1V41.9l-8.8-5.1L-93,41.9V52.1l8.8,5.1Z" transform="translate(454.6 138)" style="fill:#365673;mix-blend-mode:hard-light"/><path d="M104.5,53.3l-2.9-1.6V48.4l2.8-1.6,2.8,1.6v3.3l-2.8,1.6m0,.4,3.1-1.8V48.2l-3.1-1.8-3.2,1.8v3.7l3.2,1.8Z" transform="translate(454.6 138)" style="fill:#365673;mix-blend-mode:hard-light"/><polygon points="191.7 120.2 191.8 67.7 193.7 68.8 193.6 119.1 191.7 120.2" style="fill:#365673;mix-blend-mode:hard-light;opacity:0.30000000000000004"/><path d="M239.3-51.7,231.9-56v-8.5l7.4-4.3,7.4,4.3V-56l-7.4,4.3m0,.3,7.6-4.4v-8.8l-7.7-4.5-7.6,4.4v8.8l7.6,4.5Z" transform="translate(454.6 138)" style="fill:#365673;mix-blend-mode:hard-light"/><path d="M261.2,70,220.5,46.5V-.5L261.3-24,302-.4v47L261.2,70m0,1.4,41.9-24.2V-1.1L261.3-25.3,219.4-1.2V47.1l41.8,24.3Z" transform="translate(454.6 138)" style="fill:#365673;mix-blend-mode:hard-light"/><path d="M117.3,62.6,58.7,28.7V-39l58.7-33.8,58.6,34V28.9L117.3,62.6m0,1.9,60.3-34.7V-39.8L117.5-74.6,57.2-39.9V29.7l60.2,34.8Z" transform="translate(454.6 138)" style="fill:#365673;mix-blend-mode:hard-light"/><path d="M461-22.8,422-45.4v-45l39-22.5,39,22.6v45L461-22.8m0,1.3,40.1-23.1V-90.9l-40.1-23.2L421-91v46.3l40,23.2Z" transform="translate(454.6 138)" style="fill:#365673;mix-blend-mode:hard-light"/><path d="M188.6,67.3,158.4,49.9V15.1L188.6-2.3l30.2,17.4V49.9L188.6,67.3m0,1,31-17.9V14.6l-31-17.9-31,17.9V50.4l31,17.9Z" transform="translate(454.6 138)" style="fill:#365673;mix-blend-mode:hard-light"/><path d="M-166.4,32.8l-3.7-2.2V26.4l3.7-2.1,3.7,2.1v4.2l-3.7,2.2m0,.1,3.8-2.2V26.3l-3.8-2.2-3.8,2.2v4.4l3.8,2.2Z" transform="translate(454.6 138)" style="fill:#365673;mix-blend-mode:hard-light"/><path d="M-75.8-109.9-36.2-87v45.7L-75.9-18.4l-39.6-23V-87.1l39.6-22.8m0-1.8L-117-88v47.5l41.2,23.9,41.2-23.8V-87.9l-41.1-23.8Z" transform="translate(454.6 138)" style="fill:#365673;mix-blend-mode:hard-light"/><path d="M-97.3,28.7l-12.5-7.2V7.1L-97.2-.1l12.4,7.2V21.5l-12.5,7.2m0,1.8,14-8.1V6.2l-14-8.1-14.1,8.1V22.4l14,8.1Z" transform="translate(454.6 138)" style="fill:#365673;mix-blend-mode:hard-light"/><path d="M-171.7,12l-61.1-35.3V-93.8l61.1-35.2,61.1,35.3v70.5L-171.7,12m0,8.6,68.5-39.5V-98l-68.5-39.6-68.5,39.5v79l68.5,39.7Z" transform="translate(454.6 138)" style="fill:#365673;mix-blend-mode:hard-light"/><path d="M239.6,25.6l-4-2.4V18.5l4-2.3,4.1,2.3v4.7l-4.1,2.4m0,.5,4.6-2.6V18.2l-4.6-2.6-4.5,2.6v5.3l4.5,2.6Z" transform="translate(454.6 138)" style="fill:#365673;mix-blend-mode:hard-light"/><polygon points="777.4 155.7 783.4 159.1 789.3 155.7 789.3 148.9 783.4 145.5 777.5 148.9 777.4 155.7" style="fill:#365673;mix-blend-mode:hard-light"/><polygon points="461.2 64.4 498.3 85.9 535.5 64.4 535.6 21.5 498.4 0 461.2 21.4 461.2 64.4" style="fill:#365673;mix-blend-mode:hard-light;opacity:0.5"/><polygon points="661 46 664.2 47.8 667.3 46 667.3 42.4 664.2 40.6 661 42.4 661 46" style="fill:#365673;mix-blend-mode:hard-light"/><path d="M490.4,33l-8-4.6V19.2l7.9-4.5,7.9,4.6v9.1L490.4,33m0,1.1,8.9-5.1V18.7l-8.9-5.2-8.9,5.2V29l8.9,5.1Z" transform="translate(454.6 138)" style="fill:#365673;mix-blend-mode:hard-light"/><path d="M258.9-15.7,224.4-35.6V-75.4L259-95.3l34.4,20v39.8L258.9-15.7m0,4.8,38.6-22.2V-77.7L259-100.1,220.3-77.8v44.6l38.6,22.3Z" transform="translate(454.6 138)" style="fill:#365673;mix-blend-mode:hard-light"/><path d="M-193.2,32.4l-7.9-4.6V18.7l7.9-4.5,7.9,4.6v9l-7.8,4.6m0,1.1,8.8-5.1V18.2l-8.8-5.1-8.8,5.1V28.4l8.8,5.1Z" transform="translate(454.6 138)" style="fill:#365673;mix-blend-mode:hard-light"/><path d="M-4.5,29.6-7.3,28V24.7l2.8-1.6,2.8,1.6V28l-2.8,1.6m0,.4,3.2-1.8V24.5l-3.2-1.8-3.2,1.8v3.7L-4.5,30Z" transform="translate(454.6 138)" style="fill:#365673;mix-blend-mode:hard-light"/><path d="M427.3-1l-7.1-4.1v-8.2l7.1-4.1,7.2,4.1v8.2L427.3-1m0,.2L434.6-5v-8.4l-7.4-4.3L420-13.5V-5l7.3,4.2Z" transform="translate(454.6 138)" style="fill:#365673;mix-blend-mode:hard-light"/><path d="M130.3-75.4l-7.4-4.3v-8.6l7.5-4.2,7.4,4.2v8.6l-7.5,4.3m0,.2,7.7-4.4v-8.8l-7.6-4.4-7.7,4.4v8.8l7.6,4.4Z" transform="translate(454.6 138)" style="fill:#365673;mix-blend-mode:hard-light"/><path d="M432.7-94.4l-4.9-2.8V-103l4.9-2.8,5,2.8v5.8l-5,2.8m0,.2,5.1-3V-103l-5.1-3-5.1,2.9v5.9l5.1,3Z" transform="translate(454.6 138)" style="fill:#365673;mix-blend-mode:hard-light"/><path d="M152.2,46.3,111.5,22.8V-24.3l40.7-23.4L193-24.2V22.9L152.2,46.3m0,1.3,41.9-24.1V-24.8L152.3-49,110.4-24.9V23.4l41.8,24.2Z" transform="translate(454.6 138)" style="fill:#365673;mix-blend-mode:hard-light"/><path d="M8.3,38.9-50.2,5V-62.7L8.5-96.5,67.1-62.6V5.1L8.3,38.9m0,1.9L68.6,6.1V-63.5L8.5-98.4-51.8-63.6V5.9L8.3,40.8Z" transform="translate(454.6 138)" style="fill:#365673;mix-blend-mode:hard-light"/><path d="M352-46.5,313.1-69.1v-45l39-22.5,39,22.6v45L352-46.5m0,1.2,40.2-23.1v-46.3l-40.1-23.1L312-114.7v46.2l40,23.2Z" transform="translate(454.6 138)" style="fill:#365673;mix-blend-mode:hard-light"/><path d="M79.6,43.6,49.5,26.1V-8.7L79.7-26,109.8-8.6V26.2L79.6,43.6m0,1,31-17.9V-9.1L79.7-27,48.7-9.2V26.6l31,18Z" transform="translate(454.6 138)" style="fill:#365673;mix-blend-mode:hard-light"/></g><path d="M-454.6-29V605.8H1165.9c2-5.3,4-10.6,5.9-15.9V-14.8c-1.7-4.8-3.5-9.5-5.3-14.2Z" transform="translate(454.6 138)" style="mix-blend-mode:screen;fill:url(#radial-gradient-3)"/><path d="M-137.2-29a565.1,565.1,0,0,0,1.1,634.8H797.3A564.7,564.7,0,0,0,798.4-29Z" transform="translate(454.6 138)" style="mix-blend-mode:color-dodge;fill:url(#radial-gradient-4)"/><path d="M-416.2-29l-38.4,2.6v628q31.4,2.3,63.3,4.2H1053q60.3-3.9,118.8-8.3V-22.3c-31-2.3-62.5-4.6-94.3-6.7Z" transform="translate(454.6 138)" style="mix-blend-mode:screen;fill:url(#radial-gradient-5)"/><path d="M1171.8,125.1C946.5,92.3,652.4,72.5,330.6,72.5c-295.8,0-568.2,16.7-785.2,44.9V457.8c217,28.2,489.4,45,785.2,45,321.8,0,615.9-19.9,841.2-52.7Z" transform="translate(454.6 138)" style="mix-blend-mode:color-dodge;fill:url(#radial-gradient-6)"/><path d="M1171.8,222.4c-256.3-4.2-541.1-6.5-841.2-6.5-278.4,0-543.7,2-785.2,5.6V353.7c241.5,3.6,506.8,5.6,785.2,5.6,300.1,0,584.9-2.3,841.2-6.5Z" transform="translate(454.6 138)" style="mix-blend-mode:screen;fill:url(#radial-gradient-7)"/><path d="M1171.8,253.4c-225.3-6.9-519.4-11.1-841.2-11.1-295.8,0-568.2,3.5-785.2,9.5v71.6c217,6,489.4,9.5,785.2,9.5,321.8,0,615.9-4.2,841.2-11.1Z" transform="translate(454.6 138)" style="mix-blend-mode:color-dodge;fill:url(#radial-gradient-8)"/></g><path d="M375.4,201.8a83.3,83.3,0,0,1-8.4,2.9c-17.4,5.1-40.5,1.8-57.2-8.6l-2.4-1.7a38.1,38.1,0,0,1-4.3-3.7,33.4,33.4,0,0,1-7.1-11.1h0a42.7,42.7,0,0,1-2.7-11.4c-.5-6.7,1-12.9,4.3-19.5,5-10.1,10.8-13.4,17.2-19.5,4.8-4.5,8.4-11.8,7.8-18.5a9.4,9.4,0,0,0-4.5-6.8,10.4,10.4,0,0,0-2.2-1.5c0-.1-.1-.1,0-.2s0-.2.1-.2c14.2,1.7,18.2,14.4,16.8,25.7a19.1,19.1,0,0,0-.4,6.7,13.7,13.7,0,0,0,1.8,4.5c.9,1.5,2.1,2.8,2.3,4.5s-.7,1.7-1.6,2.1-1.4.2-2,.6a1.3,1.3,0,0,0-.5,1.7,3.9,3.9,0,0,1,.4,1.8,1.5,1.5,0,0,1-.8,1.1,2,2,0,0,1-.9.5c-.2,0-.2.2-.1.3a1.8,1.8,0,0,1,.7.8c.4,1.8-1.7,1.9-2.5,3.1s-.2,1.2-.1,1.8a3.5,3.5,0,0,1-1,3.2,5.4,5.4,0,0,1-3.2,1.3c-4.3.3-8.8-1.4-13.1-.4h-.4a6,6,0,0,0-2.4,1.2,22.2,22.2,0,0,0-4.1,4,15.9,15.9,0,0,0-3.4,11.5h0a12.9,12.9,0,0,0,5.7,9.7,76.9,76.9,0,0,0,16.1,8.7,64.8,64.8,0,0,0,50.1-.5c30.6-13,51.7-48.2,46-83.3a106.7,106.7,0,0,0-12.1-32.5C374.5,24,295.7,27.1,253.4,79.7c-.3.3-.8-.1-.6-.5,1.6-2.7,3.3-5.3,5.1-7.9a95.4,95.4,0,0,1,170.4,33.4v.2C437.6,145.3,412.7,186.5,375.4,201.8Z" transform="translate(454.6 138)" style="fill:#4a6cf7"/><path d="M276.9,195.9a49.9,49.9,0,0,1-6.4-2.5l-2.6-1.5c-23.6-14.8-14.7-42,8.4-53.4h-.1C260.5,155.3,259.9,179.6,276.9,195.9Z" transform="translate(454.6 138)" style="fill:#4a6cf7"/><path d="M298.3,123.6c-6.8,6.8-15.5,8.6-24,12.2-11.5,5-19.4,12.8-24.9,23.8.1-1.4.2-2.8.4-4.2h0a32.3,32.3,0,0,1,4.5-13.4c4.8-7.1,11.1-10.9,19.4-12.9,6.2-1.5,13-1.5,19.3-3.4a22.3,22.3,0,0,0,4.3-1.6h0Z" transform="translate(454.6 138)" style="fill:#4a6cf7"/><path d="M375.8,215.5a128.1,128.1,0,0,0-13.9.8c-17.6,1.8-35,5.5-57.5-3.8a57,57,0,0,1-8.2-4.1l-.5-.3c-13.3-8.3-20.9-22.6-18.7-38.3a42.5,42.5,0,0,1,3.2-11.6c5-11.5,14.5-20.1,24.7-27h.1c1.9-1.3,4-2.6,5.9-4h0c-10.8,10.4-21.2,22.6-22.5,37.9a37.5,37.5,0,0,0,1.6,14.3c6.2,19.9,28.4,33.1,49.3,33.7C351.2,213.8,364.3,212,375.8,215.5Z" transform="translate(454.6 138)" style="fill:#4a6cf7"/><path d="M318.6,114.1a31.2,31.2,0,0,1-7,8.7c-1.4,1.3-2.9,2.4-4.3,3.5l-4.6,3.2c-6,4-12,7.9-16.9,12.6a38.7,38.7,0,0,0-10.4,16.6,41.2,41.2,0,0,0-1.8,9.9,47.5,47.5,0,0,0,.6,10.6c0,.2-.1.4-.3.4l-.3-.2a25.6,25.6,0,0,1-3.1-6.7,29.7,29.7,0,0,1-.8-15.4,33.6,33.6,0,0,1,4.3-11,40.2,40.2,0,0,1,3.4-4.7,41.6,41.6,0,0,1,4.2-4.2A53.8,53.8,0,0,1,291,131c3.2-1.8,6.5-3.3,9.8-4.9l4.8-2.4,4.5-2.8a26.3,26.3,0,0,0,6.7-6.6,4.1,4.1,0,0,0,.5-.9c4.2-7.8-4.2-8.3-9.7-6.3a42.2,42.2,0,0,0-8.1,3.7,35.3,35.3,0,0,0-8.6,6.3h0a1.8,1.8,0,0,0-.5.7h0c-.7,2.1,2,2.1,3.2,1.9,6.6-1.4,13.4-3.4,18.6-7.8h.2c.1.1.1.1,0,.2a19.9,19.9,0,0,1-2.9,3.6c-1.2,1-2.4,2-3.7,2.9a29.4,29.4,0,0,1-8.6,4,18.2,18.2,0,0,1-5.8,1.3h0a8.5,8.5,0,0,1-5-1c-1.2-.9-1.7-2.4-1-4.6a9.7,9.7,0,0,1,2.3-3.8l2.3-1.9a29.2,29.2,0,0,1,4-2.5l4.3-1.9a63.7,63.7,0,0,1,9-2.8c4.4-1,9.3-.9,11.4,1.5S320.2,110.7,318.6,114.1Z" transform="translate(454.6 138)" style="fill:#4a6cf7"/><path d="M268.3,91.6a1.5,1.5,0,0,0,.6.9l.3.2a2.2,2.2,0,0,0,1.6.1,2,2,0,0,0,1.2-1.9,1.3,1.3,0,0,0-.1-.6,4.3,4.3,0,0,0-.4-.7,2,2,0,0,0-2.1-.4A1.8,1.8,0,0,0,268.3,91.6Z" transform="translate(454.6 138)" style="fill:#4a6cf7"/><path d="M269.2,92.7a2.2,2.2,0,0,0,1.6.1,2,2,0,0,0,1.2-1.9,1.3,1.3,0,0,0-.1-.6,4.3,4.3,0,0,0-.4-.7v.5a2.7,2.7,0,0,1,0,.9,2.6,2.6,0,0,1-1.9,1.6Z" transform="translate(454.6 138)" style="fill:#4a6cf7;mix-blend-mode:multiply"/><path d="M268.9,92.5c-.2-.2-.2-.4-.3-.6a2.2,2.2,0,0,1,.1-1.6,2.2,2.2,0,0,1,.6-.7l.8-.2a1.9,1.9,0,0,1,1.4.7h0a1.4,1.4,0,0,1,.5.8,1.3,1.3,0,0,0-.1-.6,4.3,4.3,0,0,0-.4-.7,2,2,0,0,0-2.1-.4,1.8,1.8,0,0,0-1.1,2.4A1.5,1.5,0,0,0,268.9,92.5Z" transform="translate(454.6 138)" style="fill:#4a6cf7;mix-blend-mode:screen"/><path d="M269.8,89.5c1.3.1.6,2-.4,2.2S268.4,89.3,269.8,89.5Z" transform="translate(454.6 138)" style="fill:#4a6cf7;mix-blend-mode:screen"/><path d="M285.8,74.7a3,3,0,0,0,.7,1.1l.5.2a2.1,2.1,0,0,0,1.9.1,2.1,2.1,0,0,0,1.5-2.2,1.9,1.9,0,0,0-.1-.8,1.6,1.6,0,0,0-.6-.8,2.3,2.3,0,0,0-2.5-.6A2.4,2.4,0,0,0,285.8,74.7Z" transform="translate(454.6 138)" style="fill:#4a6cf7"/><path d="M287,76a2.1,2.1,0,0,0,1.9.1,2.1,2.1,0,0,0,1.5-2.2,1.9,1.9,0,0,0-.1-.8,1.6,1.6,0,0,0-.6-.8c.1.1.1.3.2.5a3.6,3.6,0,0,1-.2,1.1,3.3,3.3,0,0,1-2.2,2.1Z" transform="translate(454.6 138)" style="fill:#4a6cf7;mix-blend-mode:multiply"/><path d="M286.5,75.8l-.3-.7a2.7,2.7,0,0,1,.2-2,1.6,1.6,0,0,1,.7-.9l1-.2a2.7,2.7,0,0,1,1.8.8h0a3.7,3.7,0,0,1,.5,1.1,1.9,1.9,0,0,0-.1-.8,1.6,1.6,0,0,0-.6-.8,2.3,2.3,0,0,0-2.5-.6,2.4,2.4,0,0,0-1.4,3A3,3,0,0,0,286.5,75.8Z" transform="translate(454.6 138)" style="fill:#4a6cf7;mix-blend-mode:screen"/><path d="M287.7,72.1c1.6.1.8,2.5-.4,2.7S285.9,71.8,287.7,72.1Z" transform="translate(454.6 138)" style="fill:#4a6cf7;mix-blend-mode:screen"/><path d="M314.6,74.4a1.7,1.7,0,0,1,.1,1c0,.2-.1.3-.1.4a2,2,0,0,1-1.1,1.1,2,2,0,0,1-2.2-.6l-.3-.5a2.5,2.5,0,0,1-.1-.8,1.8,1.8,0,0,1,1.2-1.7A1.9,1.9,0,0,1,314.6,74.4Z" transform="translate(454.6 138)" style="fill:#4a6cf7"/><path d="M314.6,75.8a2,2,0,0,1-1.1,1.1,2,2,0,0,1-2.2-.6l-.3-.5a2.5,2.5,0,0,1-.1-.8l.2.4.7.6a2.6,2.6,0,0,0,2.4,0Z" transform="translate(454.6 138)" style="fill:#4a6cf7;mix-blend-mode:multiply"/><path d="M314.7,75.4a1.4,1.4,0,0,0-.2-.6,2,2,0,0,0-1.1-1.1,1.5,1.5,0,0,0-.9-.2l-.7.4a2.1,2.1,0,0,0-.7,1.5h0a2.9,2.9,0,0,0,.2.9l-.3-.5a2.5,2.5,0,0,1-.1-.8,1.8,1.8,0,0,1,1.2-1.7,1.9,1.9,0,0,1,2.5,1.1A1.7,1.7,0,0,1,314.7,75.4Z" transform="translate(454.6 138)" style="fill:#4a6cf7;mix-blend-mode:screen"/><path d="M312.1,73.8c-1,.9.8,1.9,1.6,1.4S313,72.7,312.1,73.8Z" transform="translate(454.6 138)" style="fill:#4a6cf7;mix-blend-mode:screen"/><path d="M312.4,78.4a.7.7,0,0,0-.7.4l-1.4,3-3.7,8.1a4.3,4.3,0,0,1-1.5,1.8,3.2,3.2,0,0,1-4.5-.3h0L290.4,77.8a1.1,1.1,0,0,0-.8-.3.8.8,0,0,0-.7.9c.2,4.6.7,11,1,16.9h0a3.2,3.2,0,0,1-3.2,3.3,5.4,5.4,0,0,1-2.2-.5L273.4,93c-.4-.1-.7,0-.8.2a.5.5,0,0,0,0,.8l12.7,15.4a2.5,2.5,0,0,0,3.1.5l1.7-1.1,3.2-1.7a33.3,33.3,0,0,1,6.1-2.7c0-.1.1-.1.2-.1l4.9-1.6,3-.6,3.7-.7a2.3,2.3,0,0,0,2.1-2.3c-.1-5.2-.2-13.6-.4-20.1A.6.6,0,0,0,312.4,78.4Z" transform="translate(454.6 138)" style="fill:#4a6cf7"/><path d="M292.1,107.7a31.3,31.3,0,0,0-3.6,2.2,2.5,2.5,0,0,1-3.2-.5L272.6,94a.5.5,0,0,1,0-.8Z" transform="translate(454.6 138)" style="fill:#4a6cf7;mix-blend-mode:screen"/><path d="M289.6,77.5l10,26.8c-.1,0-.2,0-.2.1a33.3,33.3,0,0,0-6.1,2.7l-3.8-7.7a1.5,1.5,0,0,0,.6-1.3c-.4-6.6-.9-14.3-1.2-19.7A.8.8,0,0,1,289.6,77.5Z" transform="translate(454.6 138)" style="fill:#4a6cf7;mix-blend-mode:screen"/><path d="M312.4,78.4h0l-4.9,23.6-3,.6-.9-8.5a1.5,1.5,0,0,0,1.4-.9c1.4-3.1,3.6-7.7,5.3-11.5l1.4-3A.7.7,0,0,1,312.4,78.4Z" transform="translate(454.6 138)" style="fill:#4a6cf7;mix-blend-mode:screen"/><path d="M289.6,106.4a1.6,1.6,0,0,1-1.8-.9,1.4,1.4,0,1,1,2.7-1A1.5,1.5,0,0,1,289.6,106.4Z" transform="translate(454.6 138)" style="fill:#4a6cf7;mix-blend-mode:screen"/><circle cx="752.6" cy="239.7" r="1.4" style="fill:#4a6cf7;mix-blend-mode:screen"/><circle cx="761.4" cy="236.5" r="1.4" style="fill:#4a6cf7;mix-blend-mode:screen"/><circle cx="743.7" cy="243" r="1" style="fill:#4a6cf7;mix-blend-mode:multiply"/><circle cx="752.6" cy="239.7" r="1" style="fill:#4a6cf7;mix-blend-mode:multiply"/><circle cx="761.4" cy="236.5" r="1" style="fill:#4a6cf7;mix-blend-mode:multiply"/><path d="M297.3,124.1c-.5.3-8.4,5.3-22.2,7.2s-22.2,12.6-25.3,24.1a32.3,32.3,0,0,1,4.5-13.4c4.8-7.1,11.1-10.9,19.4-12.9,6.2-1.5,13-1.5,19.3-3.4A22.3,22.3,0,0,0,297.3,124.1Z" transform="translate(454.6 138)" style="fill:#4a6cf7;mix-blend-mode:screen"/><path d="M276.3,138.5h-.1c-.7.5-36,25-8,52.9l-.3.5C244.3,177.1,253.2,149.9,276.3,138.5Z" transform="translate(454.6 138)" style="fill:#4a6cf7;mix-blend-mode:screen"/><path d="M318.7,107h-.1s-6.4-6-24.7,5c0,0-9.1,4-7.5,10.9-1.2-.9-1.7-2.4-1-4.6a9.7,9.7,0,0,1,2.3-3.8l2.3-1.9a29.2,29.2,0,0,1,4-2.5l4.3-1.9a63.7,63.7,0,0,1,9-2.8C311.7,104.5,316.6,104.6,318.7,107Z" transform="translate(454.6 138)" style="fill:#4a6cf7;mix-blend-mode:screen"/><path d="M312.4,112.2a19.9,19.9,0,0,1-2.9,3.6c-1.2,1-2.4,2-3.7,2.9a29.4,29.4,0,0,1-8.6,4,14,14,0,0,1-3.1.9,3.6,3.6,0,0,1-4.1-5,5.9,5.9,0,0,0,.4-.8h0c-.7,2.1,2,2.1,3.2,1.9,6.6-1.4,13.4-3.4,18.6-7.8h.2C312.5,112.1,312.5,112.1,312.4,112.2Z" transform="translate(454.6 138)" style="fill:#4a6cf7;mix-blend-mode:multiply"/><path d="M316.8,114.3c-4.4,9.2-16,13.5-24.5,18.5-13.9,7.9-24.2,24.2-21.8,39.9a29.7,29.7,0,0,1-.8-15.4,33.6,33.6,0,0,1,4.3-11,40.2,40.2,0,0,1,3.4-4.7,41.6,41.6,0,0,1,4.2-4.2A53.8,53.8,0,0,1,291,131c3.2-1.8,6.5-3.3,9.8-4.9l4.8-2.4,4.5-2.8A26.3,26.3,0,0,0,316.8,114.3Z" transform="translate(454.6 138)" style="fill:#4a6cf7;mix-blend-mode:screen"/><path d="M296.2,208.4l-.5-.3c-13.3-8.3-20.9-22.6-18.7-38.3a42.5,42.5,0,0,1,3.2-11.6c5-11.5,14.5-20.1,24.7-27h.1C278.3,153.1,272.8,186.7,296.2,208.4Z" transform="translate(454.6 138)" style="fill:#4a6cf7;mix-blend-mode:screen"/><path d="M375.8,215.5a128.1,128.1,0,0,0-13.9.8h-.2a37,37,0,0,0-9.4-.2c-14.1.5-28.6-1.7-40.7-8.8-10.4-6.2-18.8-16.3-21.6-28,6.2,19.9,28.4,33.1,49.3,33.7C351.2,213.8,364.3,212,375.8,215.5Z" transform="translate(454.6 138)" style="fill:#4a6cf7;mix-blend-mode:screen"/><path d="M321.7,127.4c-2.7,4.4-6.5,8-10.3,11.5-9.4,7.2-16.6,17.7-18.1,29.2-.5-6.7,1-12.9,4.3-19.5,5-10.1,10.8-13.4,17.2-19.5,4.8-4.5,8.4-11.8,7.8-18.5a9.4,9.4,0,0,0-4.5-6.8,10.4,10.4,0,0,0-2.2-1.5c0-.1-.1-.1,0-.2C326.5,105,327.6,119.3,321.7,127.4Z" transform="translate(454.6 138)" style="fill:#4a6cf7;mix-blend-mode:screen"/><path d="M428.3,104.7c-8.9-18.3-19.6-36.3-35.3-49.5C347.8,18,294.5,34.6,257.9,71.3a95.4,95.4,0,0,1,170.4,33.4Z" transform="translate(454.6 138)" style="fill:#4a6cf7;mix-blend-mode:screen"/><path d="M422.2,127.5c.2,40.3-35.3,76.2-75.9,75-7.8.1-16.3-1.7-23-6a64.8,64.8,0,0,0,50.1-.5c30.6-13,51.7-48.2,46-83.3a106.7,106.7,0,0,0-12.1-32.5c5.3,6.7,11.1,21.4,11.7,24.4A77.3,77.3,0,0,1,422.2,127.5Z" transform="translate(454.6 138)" style="fill:#4a6cf7;mix-blend-mode:screen"/><path d="M372.5,78.4l-7.1,1.5a13.4,13.4,0,0,0-10.3,10.4l-1.5,7.1-1.5-7.1a13.5,13.5,0,0,0-10.4-10.4l-7-1.5,7-1.5a13.3,13.3,0,0,0,10.4-10.3l1.5-7.1,1.5,7.1a13.2,13.2,0,0,0,10.3,10.3Z" transform="translate(454.6 138)" style="fill:#4a6cf7"/><path d="M353.6,59.5V72.6a5.8,5.8,0,0,1-5.8,5.8H334.7l7-1.5a13.3,13.3,0,0,0,10.4-10.3Z" transform="translate(454.6 138)" style="fill:#4a6cf7;mix-blend-mode:screen"/><path d="M372.5,78.4l-7.1,1.5a13.4,13.4,0,0,0-10.3,10.4l-1.5,7.1V85.6a7.2,7.2,0,0,1,7.2-7.2Z" transform="translate(454.6 138)" style="fill:#4a6cf7;mix-blend-mode:multiply"/><path d="M404.4,113.2l-4.3.9a8,8,0,0,0-6.3,6.2c-.3,1.5-.6,3-.9,4.3-.3-1.3-.6-2.8-.9-4.3a8,8,0,0,0-6.3-6.2l-4.3-.9,4.3-.9A8.1,8.1,0,0,0,392,106l.9-4.3.9,4.3a8.1,8.1,0,0,0,6.3,6.3Z" transform="translate(454.6 138)" style="fill:#4a6cf7"/><path d="M392.9,101.7v8a3.5,3.5,0,0,1-3.5,3.5h-8l4.3-.9A8.1,8.1,0,0,0,392,106Z" transform="translate(454.6 138)" style="fill:#4a6cf7;mix-blend-mode:screen"/><path d="M404.4,113.2l-4.3.9a8,8,0,0,0-6.3,6.2c-.3,1.5-.6,3-.9,4.3v-7.1a4.3,4.3,0,0,1,4.3-4.3Z" transform="translate(454.6 138)" style="fill:#4a6cf7;mix-blend-mode:multiply"/><path d="M376.1,143.5l-2.7.6a4.9,4.9,0,0,0-3.9,3.9l-.6,2.7-.6-2.7a4.9,4.9,0,0,0-3.9-3.9l-2.7-.6,2.7-.6a4.9,4.9,0,0,0,3.9-3.9l.6-2.7.6,2.7a4.9,4.9,0,0,0,3.9,3.9Z" transform="translate(454.6 138)" style="fill:#4a6cf7"/><path d="M368.9,136.3v5a2.2,2.2,0,0,1-2.2,2.2h-5l2.7-.6a4.9,4.9,0,0,0,3.9-3.9Z" transform="translate(454.6 138)" style="fill:#4a6cf7;mix-blend-mode:screen"/><path d="M376.1,143.5l-2.7.6a4.9,4.9,0,0,0-3.9,3.9l-.6,2.7v-4.5a2.7,2.7,0,0,1,2.7-2.7Z" transform="translate(454.6 138)" style="fill:#4a6cf7;mix-blend-mode:multiply"/><path d="M394.2,155.7a52.6,52.6,0,0,1-2.5,7.2,47.8,47.8,0,0,1-19.4,23.3c-12.2,7.4-24.6,6.8-31,6.5a64.4,64.4,0,0,1-28.3-8,64.4,64.4,0,0,0,6.8,1.6,72.2,72.2,0,0,0,74.4-30.6Z" transform="translate(454.6 138)" style="fill:#4a6cf7"/><path d="M394.2,155.7a52.6,52.6,0,0,1-2.5,7.2c-15.9,22-46.1,31.8-71.9,23.4a72.2,72.2,0,0,0,74.4-30.6Z" transform="translate(454.6 138)" style="fill:#4a6cf7;mix-blend-mode:screen"/></g></g></g></svg>