<?xml version="1.0" encoding="utf-8"?>
<!-- Generator: Adobe Illustrator 26.0.1, SVG Export Plug-In . SVG Version: 6.00 Build 0)  -->
<svg version="1.1" id="Layer_1" xmlns="http://www.w3.org/2000/svg" xmlns:xlink="http://www.w3.org/1999/xlink" x="0px" y="0px"
	 viewBox="0 0 160 60" style="enable-background:new 0 0 160 60;" xml:space="preserve">
<style type="text/css">
	.st0{fill:#4A6CF7;}
	.st1{stroke:#000000;stroke-width:0.5;stroke-miterlimit:10;}
	.st2{font-family:'PSLButterflySP';}
	.st3{font-size:26.1031px;}
</style>
<g>
	<g>
		<g>
			<path class="st0" d="M16.6,50.3c-0.9-0.3-1.7-0.5-2.5-1c-0.3-0.2-0.7-0.4-1-0.6c-9.3-5.8-5.8-16.6,3.3-21.1c0,0,0,0,0,0
				C10.1,34.3,9.8,43.9,16.6,50.3z"/>
		</g>
		<g>
			<path class="st0" d="M25,21.8c-2.7,2.7-6.1,3.4-9.5,4.8c-4.5,1.9-7.7,5-9.8,9.4c0-0.6,0.1-1.1,0.2-1.7c0,0,0,0,0,0
				c0.2-1.9,0.7-3.7,1.8-5.3c1.9-2.8,4.4-4.3,7.6-5.1c2.5-0.6,5.1-0.6,7.6-1.3c0.6-0.2,1.2-0.4,1.7-0.6c0,0,0,0,0,0
				C24.8,22,24.9,21.9,25,21.8z"/>
		</g>
		<g>
			<path class="st0" d="M148.9,53c0,0.1,0,0.1-0.1,0.1c-2.7,0.9-5.5,1.5-8.3,1.8c-2.8,0.3-5.8,0.3-8.6,0c-5.7-0.5-11.3-1.8-16.7-3.2
				c-5.5-1.4-10.8-2.8-16.2-3.8c-17.7-3.4-32,3.7-49.2,6.4c-5,0.8-10.8,0.9-15.7-0.8c-3.9-1.3-7.3-3.7-9.2-7.8
				c-0.3-0.6-0.6-1.2-0.8-1.8c-0.6-1.6-0.9-3.1-1.1-4.5c-0.2-2.6,0.4-5.1,1.7-7.7c2-4,4.3-5.3,6.8-7.7c1.9-1.8,3.3-4.7,3.1-7.3
				c-0.1-1.1-0.8-2.1-1.7-2.7c-0.2-0.1-0.5-0.4-0.9-0.6c0,0,0,0,0-0.1c0,0,0-0.1,0.1-0.1c5.6,0.6,7.2,5.7,6.6,10.1
				c-0.1,1-0.3,1.7-0.1,2.6c0.1,0.7,0.4,1.2,0.7,1.8s0.8,1.1,0.9,1.8c0.1,0.4-0.3,0.7-0.6,0.8c-0.3,0.1-0.6,0.1-0.8,0.2
				c-0.3,0.1-0.3,0.4-0.2,0.7c0.1,0.2,0.2,0.5,0.2,0.7s-0.2,0.3-0.3,0.5c-0.1,0.1-0.2,0.1-0.4,0.2c-0.1,0-0.1,0.1,0,0.1
				c0.1,0.1,0.2,0.2,0.3,0.3c0.2,0.7-0.7,0.7-1,1.2c-0.2,0.2-0.1,0.5,0,0.7c0.1,0.5,0,0.9-0.4,1.2c-0.4,0.3-0.7,0.5-1.3,0.5
				c-1.7,0.1-3.5-0.6-5.2-0.2c-0.1,0-0.1,0-0.2,0c-0.3,0.1-0.6,0.3-0.9,0.5c-2,1.5-3.2,3.6-3,6.1c0.2,1.9,1.1,3.4,2.5,4.6
				c0.1,0.1,0.1,0.1,0.2,0.2c2.1,1.7,4.6,2.6,7.2,3.1c0.6,0.1,1.1,0.2,1.7,0.3c3.3,0.4,6.7,0.1,10-0.4c3.1-0.5,6.5-1.2,9.5-2.1
				c14.1-4.3,27.6-8.5,42.4-5.6c5.6,1.1,11.1,2.7,16.5,4.4c5.4,1.6,10.6,3.3,16,4.4c2.7,0.5,5.4,0.9,8.2,1.1c2.6,0.2,5.2,0,7.8-0.2
				c0.2,0,0.4,0,0.6-0.1C148.8,52.8,148.8,52.9,148.9,53z"/>
		</g>
		<path class="st0" d="M55.6,58.1c-1.9,0-3.7,0.1-5.5,0.3c-6.9,0.7-13.8,2.2-22.7-1.5c-1.1-0.5-2.2-1-3.2-1.6
			c-0.1,0-0.1-0.1-0.2-0.1c-5.2-3.3-8.3-8.9-7.4-15.1c0.2-1.6,0.7-3.1,1.3-4.6c2-4.5,5.7-7.9,9.7-10.7c0,0,0,0,0,0
			c0.8-0.5,1.6-1,2.3-1.6c0,0,0,0,0,0c-4.3,4.1-8.4,8.9-8.9,14.9c-0.2,2,0.1,3.9,0.6,5.6c2.5,7.9,11.2,13.1,19.5,13.3
			C45.9,57.4,51.1,56.7,55.6,58.1z"/>
		<path class="st0" d="M33,18.1c-0.7,1.3-1.7,2.4-2.8,3.4c-0.5,0.5-1.1,0.9-1.7,1.4c-0.6,0.4-1.2,0.8-1.8,1.3
			c-2.4,1.6-4.8,3.1-6.7,5c-1.9,1.8-3.3,4.1-4.1,6.6c-0.4,1.2-0.6,2.6-0.7,3.9c-0.1,1.4,0,2.7,0.2,4.2c0,0.1,0,0.1-0.1,0.1
			c0,0-0.1,0-0.1-0.1c-0.5-0.8-0.9-1.7-1.2-2.6c-0.6-1.9-0.7-4.1-0.3-6.1c0.3-1.5,0.9-3,1.7-4.3c0.4-0.7,0.9-1.3,1.4-1.9
			c0.5-0.6,1.1-1.1,1.6-1.6c1.2-1,2.4-1.8,3.7-2.5c1.3-0.7,2.6-1.3,3.9-1.9c0.6-0.3,1.3-0.6,1.9-1c0.6-0.3,1.2-0.7,1.8-1.1
			c1-0.7,2-1.6,2.7-2.6c0.1-0.1,0.1-0.2,0.2-0.3c1.6-3.1-1.7-3.3-3.8-2.5c-1.1,0.4-2.2,0.8-3.2,1.4c-1.2,0.7-2.4,1.5-3.4,2.5
			c0,0,0,0,0,0c-0.1,0.1-0.1,0.2-0.2,0.3c0,0,0,0,0,0c0,0,0,0,0,0c-0.3,0.8,0.8,0.8,1.3,0.7c2.6-0.5,5.3-1.3,7.3-3.1
			c0,0,0.1,0,0.1,0c0,0,0,0,0,0.1c-0.3,0.5-0.7,1-1.2,1.4c-0.4,0.4-0.9,0.8-1.5,1.2c-1,0.7-2.2,1.2-3.4,1.6
			c-0.7,0.3-1.5,0.5-2.3,0.5c0,0,0,0,0,0c-0.8,0-1.5-0.1-2-0.4c-0.5-0.3-0.7-0.9-0.4-1.8c0.2-0.6,0.5-1.1,0.9-1.5
			c0.3-0.3,0.6-0.5,0.9-0.7c0.5-0.4,1.1-0.7,1.6-1c0.6-0.3,1.1-0.5,1.7-0.8c1.1-0.4,2.1-0.8,3.5-1.1c1.7-0.4,3.7-0.3,4.5,0.6
			C33.6,15.8,33.6,16.7,33,18.1z"/>
		<g>
			<g>
				<path class="st0" d="M13.2,9.2c0,0.1,0.1,0.2,0.2,0.3c0,0,0.1,0.1,0.1,0.1c0.2,0.1,0.4,0.1,0.6,0c0.3-0.1,0.5-0.4,0.5-0.7
					c0-0.1,0-0.2,0-0.2c0-0.1-0.1-0.2-0.2-0.3c-0.2-0.2-0.5-0.3-0.8-0.2C13.2,8.4,13,8.8,13.2,9.2z"/>
				<path class="st0" d="M13.5,9.6c0.2,0.1,0.4,0.1,0.6,0c0.3-0.1,0.5-0.4,0.5-0.7c0-0.1,0-0.2,0-0.2c0-0.1-0.1-0.2-0.2-0.3
					c0,0.1,0,0.1,0,0.2c0,0.1,0,0.2,0,0.4c-0.1,0.3-0.4,0.6-0.7,0.7C13.6,9.6,13.6,9.6,13.5,9.6z"/>
				<path class="st0" d="M13.4,9.5c0-0.1-0.1-0.1-0.1-0.2c-0.1-0.2,0-0.4,0-0.6c0.1-0.1,0.1-0.2,0.2-0.3c0.1-0.1,0.2-0.1,0.3-0.1
					c0.2,0,0.4,0.1,0.6,0.3c0,0,0,0,0,0c0.1,0.1,0.1,0.2,0.2,0.3c0-0.1,0-0.2,0-0.2c0-0.1-0.1-0.2-0.2-0.3c-0.2-0.2-0.5-0.3-0.8-0.2
					c-0.4,0.1-0.6,0.6-0.4,1C13.2,9.3,13.3,9.4,13.4,9.5z"/>
				<path class="st0" d="M13.8,8.4c0.5,0,0.3,0.8-0.1,0.9C13.1,9.2,13.2,8.3,13.8,8.4z"/>
			</g>
			<g>
				<path class="st0" d="M20.1,2.5c0.1,0.2,0.2,0.3,0.3,0.4C20.4,3,20.5,3,20.5,3c0.2,0.1,0.5,0.1,0.8,0c0.4-0.1,0.6-0.5,0.6-0.9
					c0-0.1,0-0.2-0.1-0.3c0-0.1-0.1-0.2-0.2-0.3c-0.3-0.3-0.6-0.4-1-0.2C20.2,1.5,19.9,2.1,20.1,2.5z"/>
				<path class="st0" d="M20.5,3c0.2,0.1,0.5,0.1,0.8,0c0.4-0.1,0.6-0.5,0.6-0.9c0-0.1,0-0.2-0.1-0.3c0-0.1-0.1-0.2-0.2-0.3
					c0,0.1,0,0.1,0,0.2c0,0.1,0,0.3,0,0.4c-0.1,0.4-0.5,0.7-0.9,0.8C20.7,3,20.6,3,20.5,3z"/>
				<path class="st0" d="M20.4,2.9c-0.1-0.1-0.1-0.2-0.1-0.3c-0.1-0.3-0.1-0.6,0.1-0.8c0.1-0.1,0.2-0.3,0.3-0.3
					c0.1-0.1,0.2-0.1,0.4-0.1c0.3,0,0.5,0.1,0.7,0.3c0,0,0,0,0,0c0.1,0.1,0.2,0.3,0.2,0.4c0-0.1,0-0.2-0.1-0.3
					c0-0.1-0.1-0.2-0.2-0.3c-0.3-0.3-0.6-0.4-1-0.2c-0.5,0.2-0.7,0.7-0.6,1.2C20.2,2.7,20.3,2.8,20.4,2.9z"/>
				<path class="st0" d="M20.8,1.5c0.7,0.1,0.3,1-0.2,1.1C20,2.5,20.1,1.4,20.8,1.5z"/>
			</g>
			<g>
				<path class="st0" d="M31.5,2.4c0,0.1,0.1,0.3,0,0.4c0,0.1,0,0.1,0,0.2c-0.1,0.2-0.2,0.4-0.4,0.4c-0.3,0.1-0.7,0-0.9-0.2
					C30.1,3.1,30.1,3,30,2.9c0-0.1-0.1-0.2,0-0.3c0-0.3,0.2-0.6,0.5-0.7C30.9,1.8,31.3,2,31.5,2.4z"/>
				<path class="st0" d="M31.4,3c-0.1,0.2-0.2,0.4-0.4,0.4c-0.3,0.1-0.7,0-0.9-0.2C30.1,3.1,30.1,3,30,2.9c0-0.1-0.1-0.2,0-0.3
					c0,0.1,0.1,0.1,0.1,0.2C30.1,2.9,30.2,3,30.3,3c0.3,0.2,0.7,0.2,1,0C31.4,3,31.4,3,31.4,3z"/>
				<path class="st0" d="M31.5,2.8c0-0.1,0-0.2-0.1-0.2c-0.1-0.2-0.3-0.4-0.5-0.5c-0.1,0-0.2-0.1-0.4,0c-0.1,0-0.2,0.1-0.3,0.1
					c-0.2,0.1-0.3,0.4-0.3,0.6c0,0,0,0,0,0c0,0.1,0,0.3,0.1,0.4C30.1,3.1,30.1,3,30,2.9c0-0.1-0.1-0.2,0-0.3c0-0.3,0.2-0.6,0.5-0.7
					c0.4-0.1,0.8,0.1,1,0.4C31.5,2.5,31.5,2.7,31.5,2.8z"/>
				<path class="st0" d="M30.4,2.1c-0.4,0.4,0.3,0.8,0.7,0.6C31.5,2.3,30.8,1.7,30.4,2.1z"/>
			</g>
			<g>
				<path class="st0" d="M30.6,4c-0.1,0-0.2,0-0.3,0.1c-0.2,0.4-0.3,0.8-0.5,1.2c-0.5,1-1,2.2-1.5,3.2C28.2,8.8,28,9,27.7,9.2
					c-0.4,0.3-1.1,0.6-1.8-0.1l0,0l-4-5.3c-0.1-0.1-0.2-0.1-0.3-0.1c-0.2,0-0.3,0.2-0.3,0.4c0.1,1.8,0.3,4.3,0.4,6.7l0,0
					c-0.1,1-0.8,1.2-1.3,1.3c-0.3,0-0.6-0.1-0.9-0.2c-1.4-0.7-3.2-1.4-4.4-2c-0.1-0.1-0.2,0-0.3,0.1c-0.1,0.1-0.1,0.2,0,0.3
					c1.6,2,3.7,4.5,5.1,6.1c0.3,0.4,0.8,0.4,1.2,0.2c0.2-0.1,0.4-0.3,0.7-0.4c0.4-0.2,0.8-0.5,1.2-0.7c0.8-0.4,1.6-0.8,2.4-1.1
					c0,0,0.1,0,0.1,0c0.6-0.2,1.3-0.4,1.9-0.6c0.4-0.1,0.8-0.2,1.2-0.3c0.5-0.1,1-0.2,1.5-0.2c0.5-0.1,0.8-0.5,0.8-0.9
					c0-2.1-0.1-5.4-0.1-7.9C30.8,4.1,30.7,4,30.6,4z"/>
				<path class="st0" d="M22.6,15.5c-0.5,0.3-1,0.5-1.4,0.9c-0.4,0.3-0.9,0.2-1.2-0.2c-1.3-1.6-3.4-4.1-5.1-6.1
					c-0.1-0.1-0.1-0.2,0-0.3L22.6,15.5z"/>
				<path class="st0" d="M21.6,3.6l3.9,10.6c0,0-0.1,0-0.1,0c-0.8,0.3-1.6,0.7-2.4,1.1l-1.5-3c0.2-0.1,0.3-0.3,0.2-0.5
					c-0.2-2.6-0.4-5.7-0.5-7.8C21.3,3.8,21.4,3.6,21.6,3.6z"/>
				<path class="st0" d="M30.6,4L30.6,4l-1.9,9.3c-0.4,0.1-0.8,0.2-1.2,0.3l-0.4-3.4c0.2,0,0.5-0.1,0.6-0.4c0.6-1.2,1.4-3,2.1-4.5
					c0.2-0.4,0.4-0.8,0.5-1.2C30.4,4,30.5,4,30.6,4z"/>
			</g>
			<g>
				<path class="st0" d="M21.6,15c-0.3,0.1-0.6,0-0.7-0.3c-0.1-0.3,0-0.6,0.3-0.7c0.3-0.1,0.6,0,0.7,0.3C22,14.6,21.9,14.9,21.6,15z
					"/>
				<circle class="st0" cx="24.9" cy="13.2" r="0.6"/>
				<circle class="st0" cx="28.4" cy="11.9" r="0.6"/>
				<circle class="st0" cx="21.4" cy="14.5" r="0.4"/>
				<circle class="st0" cx="24.9" cy="13.2" r="0.4"/>
				<circle class="st0" cx="28.4" cy="11.9" r="0.4"/>
			</g>
		</g>
		<path class="st0" d="M24.6,22c-0.2,0.1-3.3,2.1-8.8,2.8c-5.6,0.8-8.8,5-10,9.5c0.2-1.9,0.7-3.7,1.8-5.3c1.9-2.8,4.4-4.3,7.6-5.1
			c2.5-0.6,5.1-0.6,7.6-1.3C23.5,22.5,24.1,22.3,24.6,22z"/>
		<path class="st0" d="M16.3,27.7C16.3,27.7,16.3,27.7,16.3,27.7c-0.3,0.2-14.2,9.9-3.2,20.9L13,48.8C3.7,42.9,7.2,32.2,16.3,27.7z"
			/>
		<path class="st0" d="M33.1,15.3L33.1,15.3c0,0-2.6-2.4-9.8,2c0,0-3.6,1.6-3,4.3c-0.5-0.3-0.7-0.9-0.4-1.8c0.2-0.6,0.5-1.1,0.9-1.5
			c0.3-0.3,0.6-0.5,0.9-0.7c0.5-0.4,1.1-0.7,1.6-1c0.6-0.3,1.1-0.5,1.7-0.8c1.1-0.4,2.1-0.8,3.5-1.1C30.3,14.3,32.2,14.3,33.1,15.3z
			"/>
		<path class="st0" d="M30.6,17.3c-0.3,0.5-0.7,1-1.2,1.4c-0.4,0.4-0.9,0.8-1.5,1.2c-1,0.7-2.2,1.2-3.4,1.6
			c-0.4,0.1-0.8,0.3-1.3,0.4c-1.1,0.2-2.1-0.9-1.6-2c0.1-0.1,0.1-0.2,0.2-0.3c0,0,0,0,0,0c-0.3,0.8,0.8,0.8,1.3,0.7
			C25.8,19.8,28.4,19,30.6,17.3C30.5,17.2,30.6,17.2,30.6,17.3C30.6,17.3,30.6,17.3,30.6,17.3z"/>
		<path class="st0" d="M32.3,18.1c-1.8,3.6-6.3,5.3-9.7,7.3c-5.5,3.1-9.5,9.5-8.6,15.8c-0.6-1.9-0.7-4.1-0.3-6.1
			c0.3-1.5,0.9-3,1.7-4.3c0.4-0.7,0.9-1.3,1.4-1.9c0.5-0.6,1.1-1.1,1.6-1.6c1.2-1,2.4-1.8,3.7-2.5c1.3-0.7,2.6-1.3,3.9-1.9
			c0.6-0.3,1.3-0.6,1.9-1c0.6-0.3,1.2-0.7,1.8-1.1C30.7,20,31.6,19.2,32.3,18.1z"/>
		<path class="st0" d="M24.2,55.3c-0.1,0-0.1-0.1-0.2-0.1c-5.2-3.3-8.3-8.9-7.4-15.1c0.2-1.6,0.7-3.1,1.3-4.6
			c2-4.5,5.7-7.9,9.7-10.7c0,0,0,0,0,0C17.1,33.5,15,46.7,24.2,55.3z"/>
		<path class="st0" d="M55.6,58.1c-1.9,0-3.7,0.1-5.5,0.3c0,0-0.1,0-0.1,0c-1.2-0.2-2.5-0.1-3.7-0.1c-5.5,0.2-11.3-0.7-16-3.5
			c-4.1-2.4-7.4-6.4-8.5-11c2.5,7.9,11.2,13.1,19.5,13.3C45.9,57.4,51.1,56.7,55.6,58.1z"/>
		<path class="st0" d="M34.3,23.3c-1.1,1.7-2.6,3.2-4.1,4.5c-3.7,2.8-6.5,7-7.1,11.5c-0.2-2.6,0.4-5.1,1.7-7.7c2-4,4.3-5.3,6.8-7.7
			c1.9-1.8,3.3-4.7,3.1-7.3c-0.1-1.1-0.8-2.1-1.7-2.7c-0.2-0.1-0.5-0.4-0.9-0.6c0,0,0,0,0-0.1C36.2,14.5,36.6,20.1,34.3,23.3z"/>
		<path class="st0" d="M148.2,52.9c-4.6,1.4-14.6,0.9-16.4,0.3c-3.2-0.5-6.4-1.2-9.5-2.1c-13.5-4-26.9-7.9-39.1-6.6
			c-12.5,1.3-23.5,5.9-32.5,7.3C40.4,53.3,32.1,53,29,48.1c2.1,1.7,4.6,2.6,7.2,3.1c0.6,0.1,1.1,0.2,1.7,0.3c3.3,0.4,6.7,0.1,10-0.4
			c3.1-0.5,6.5-1.2,9.5-2.1c14.1-4.3,27.6-8.5,42.4-5.6c5.6,1.1,11.1,2.7,16.5,4.4c5.4,1.6,10.6,3.3,16,4.4c2.7,0.5,5.4,0.9,8.2,1.1
			C143,53.3,145.6,53.2,148.2,52.9z"/>
		<path class="st0" d="M148.2,52.9c-4.6,1.4-14.6,0.9-16.4,0.3c-3.2-0.5-6.4-1.2-9.5-2.1c-13.5-4-26.9-7.9-39.1-6.6
			c-12.5,1.3-23.5,5.9-32.5,7.3C40.4,53.3,32.1,53,29,48.1c2.1,1.7,4.6,2.6,7.2,3.1c0.6,0.1,1.1,0.2,1.7,0.3c3.3,0.4,6.7,0.1,10-0.4
			c3.1-0.5,6.5-1.2,9.5-2.1c14.1-4.3,27.6-8.5,42.4-5.6c5.6,1.1,11.1,2.7,16.5,4.4c5.4,1.6,10.6,3.3,16,4.4c2.7,0.5,5.4,0.9,8.2,1.1
			C143,53.3,145.6,53.2,148.2,52.9z"/>
	</g>
</g>
<text transform="matrix(1 0 0 1 46.7022 35.785)"><tspan x="0" y="0" class="st1 st2 st3">Beauty</tspan><tspan x="59.6" y="0" class="st2 st3"> Care</tspan></text>
</svg>
